<svg width="70" height="72" viewBox="0 0 70 72" fill="none" xmlns="http://www.w3.org/2000/svg">
<path d="M39.0475 70.5721C38.9018 70.7906 38.6833 71.0091 38.392 71.1548C38.1006 71.3004 37.8093 71.3733 37.3723 71.3733C37.0081 71.3733 36.7167 71.3004 36.4254 71.2276C36.1341 71.0819 35.9155 70.9363 35.697 70.7906C35.4785 70.5721 35.3328 70.3536 35.1872 70.0622C35.0415 69.7709 35.0415 69.4795 35.0415 69.1154C35.0415 68.7512 35.1143 68.4598 35.1872 68.1685C35.3328 67.8771 35.4785 67.6586 35.697 67.4401C35.9155 67.2216 36.1341 67.0759 36.4254 67.0031C36.7167 66.8574 37.0081 66.8574 37.3723 66.8574C37.5179 66.8574 37.6636 66.8574 37.8093 66.9303C37.955 66.9303 38.1006 67.0031 38.2463 67.0759C38.392 67.1488 38.5377 67.2216 38.6105 67.2944C38.7562 67.3673 38.829 67.4401 38.9018 67.5858L38.392 67.95C38.3191 67.8043 38.1006 67.6586 37.955 67.5858C37.7365 67.513 37.5179 67.4401 37.2994 67.4401C37.0809 67.4401 36.7896 67.513 36.6439 67.5858C36.4254 67.6586 36.2797 67.8043 36.1341 67.95C35.9884 68.0956 35.9155 68.3142 35.7699 68.5327C35.697 68.7512 35.6242 68.9697 35.6242 69.1882C35.6242 69.4067 35.697 69.6981 35.7699 69.8437C35.8427 70.0622 35.9884 70.2079 36.0612 70.4264C36.2069 70.5721 36.3526 70.7178 36.5711 70.7906C36.7896 70.8634 37.0081 70.9363 37.2266 70.9363C37.4451 70.9363 37.6636 70.8634 37.8821 70.7906C38.1006 70.7178 38.2463 70.5721 38.392 70.3536L39.0475 70.5721Z" fill="#392112"/>
<path d="M45.1659 69.0431C45.1659 69.4073 45.0931 69.6986 45.0203 69.99C44.8746 70.2813 44.7289 70.4998 44.5104 70.7183C44.2919 70.9369 44.0734 71.0825 43.782 71.1553C43.4907 71.301 43.1993 71.301 42.8352 71.301C42.471 71.301 42.1796 71.2282 41.8883 71.1553C41.5969 71.0097 41.3784 70.864 41.1599 70.7183C40.9414 70.4998 40.7957 70.2813 40.6501 69.99C40.5044 69.6986 40.5044 69.4073 40.5044 69.0431C40.5044 68.6789 40.5772 68.3876 40.6501 68.0962C40.7957 67.8049 40.9414 67.5864 41.1599 67.3679C41.3784 67.1494 41.5969 67.0037 41.8883 66.9308C42.1796 66.7852 42.471 66.7852 42.8352 66.7852C43.1993 66.7852 43.4907 66.858 43.782 66.9308C44.0734 67.0765 44.2919 67.2222 44.5104 67.3679C44.7289 67.5864 44.8746 67.8049 45.0203 68.0962C45.1659 68.4604 45.1659 68.7517 45.1659 69.0431ZM44.5104 69.0431C44.5104 68.8246 44.4376 68.6061 44.3647 68.3876C44.2919 68.1691 44.1462 68.0234 44.0005 67.8049C43.8549 67.6592 43.7092 67.5135 43.4907 67.4407C43.2722 67.3679 43.0537 67.295 42.8352 67.295C42.6167 67.295 42.3253 67.3679 42.1796 67.4407C41.9611 67.5135 41.8155 67.6592 41.6698 67.8049C41.5241 67.9506 41.4513 68.1691 41.3784 68.3876C41.3056 68.6061 41.2328 68.8246 41.2328 69.0431C41.2328 69.2616 41.3056 69.4801 41.3784 69.6986C41.4513 69.9171 41.5969 70.0628 41.7426 70.2813C41.8883 70.427 42.034 70.5727 42.2525 70.6455C42.471 70.7183 42.6895 70.7912 42.908 70.7912C43.1265 70.7912 43.4179 70.7183 43.5635 70.6455C43.782 70.5727 43.9277 70.427 44.0734 70.2813C44.2191 70.1356 44.2919 69.9171 44.4376 69.6986C44.5104 69.5529 44.5104 69.3344 44.5104 69.0431Z" fill="#392112"/>
<path d="M47.8605 71.2276H47.2778V66.8574H49.9728V67.3673H47.8605V68.7512H49.8271V69.261H47.8605V71.2276Z" fill="#392112"/>
<path d="M52.5949 71.2276H52.0122V66.8574H54.7072V67.3673H52.5949V68.7512H54.5615V69.261H52.5949V71.2276Z" fill="#392112"/>
<path d="M57.257 70.7178H59.5149V71.2276H56.6743V66.8574H59.4421V67.3673H57.257V68.6783H59.2964V69.1882H57.257V70.7178V70.7178Z" fill="#392112"/>
<path d="M62.2096 70.7178H64.4676V71.2276H61.627V66.8574H64.3947V67.3673H62.2096V68.6783H64.2491V69.1882H62.2096V70.7178V70.7178Z" fill="#392112"/>
<path d="M4.96044 61.9179C5.32462 61.9907 5.6888 61.9907 5.98015 61.9179C9.25779 61.408 13.3366 57.1107 15.5946 53.3232C15.5946 53.2504 15.7402 53.1775 15.8131 53.1775L16.9056 52.959C17.197 52.8862 17.3426 53.1775 17.197 53.396C14.5749 58.5674 9.4763 63.9573 5.32462 64.6129C2.26549 65.1227 0.663082 63.229 0.153226 60.3155C-1.01216 53.3232 4.59625 39.9941 12.6811 38.683C15.0119 38.3189 16.1773 39.5571 16.4686 41.2323C16.9056 44.0001 14.939 48.0061 12.0984 48.516C10.7874 48.7345 9.84048 48.079 9.4763 46.6222C9.40347 46.3309 9.62197 46.1124 9.91332 46.258C10.2775 46.4037 10.6417 46.4037 10.933 46.4037C13.191 46.0395 14.1378 41.9607 14.065 41.3052C13.9922 40.8681 13.7008 40.6496 13.4823 40.7225C11.2244 41.0866 3.35803 56.6737 4.0864 61.0439C4.30491 61.5537 4.52342 61.8451 4.96044 61.9179Z" fill="#392112"/>
<path d="M23.6065 52.0125C23.6065 51.9397 23.7522 51.8669 23.825 51.8669L24.9176 51.6483C25.2089 51.5755 25.3546 51.8668 25.2089 52.0854L24.6262 53.1051C23.2424 55.8729 20.2561 61.4084 18.1438 61.7726C16.3957 62.064 15.5945 60.6072 15.3032 58.7863C14.7205 55.4358 15.9587 49.9731 16.7599 48.1522C17.5611 46.4769 18.6537 45.8214 19.6734 45.6029C21.4943 45.3116 23.0967 46.6955 23.1695 47.351C23.1695 47.4238 23.1695 47.5695 23.0967 47.6423C21.9313 48.8805 18.508 56.6012 18.8722 58.7135C18.8722 58.8592 18.945 58.932 19.0178 59.0048C19.8919 58.7135 23.0967 52.8866 23.6065 52.0125ZM20.6202 39.1933C20.6202 38.8291 21.0573 38.6106 21.6399 38.5378C23.0238 38.3193 25.8645 38.6834 26.083 39.9945C26.1558 40.213 26.083 40.5044 25.8645 40.8685C24.7719 42.6895 22.5868 44.9474 20.6202 45.3116C20.0375 45.3844 19.6005 45.3844 19.0907 45.1659C18.945 45.0931 18.8722 44.8745 18.945 44.7289C19.3092 44.0733 20.6931 40.7957 20.6202 39.1933Z" fill="#392112"/>
<path d="M32.7113 43.7105C34.3866 43.4192 35.3335 44.8031 35.6976 46.9153C36.426 51.2127 34.3137 58.7877 29.8707 59.5161C29.1424 59.6617 28.1226 59.7346 27.1029 58.7877C27.0301 58.9334 27.0301 59.0062 26.9573 59.1519C25.8647 63.7406 24.9178 68.0379 24.9907 68.6206C24.9907 68.7663 24.845 68.912 24.6993 68.9848C23.8253 69.0576 21.7859 69.1305 21.4217 67.1639C20.9847 64.6874 23.4611 51.7225 24.6993 47.1338C24.9178 46.2598 25.0635 45.6771 25.0635 44.7302C25.0635 44.6574 25.1363 44.5117 25.2092 44.5117C25.282 44.4389 25.6462 44.3661 26.0832 44.2932C27.2486 44.0747 29.5794 44.1476 29.8707 46.1141C29.8707 46.187 29.8707 46.3326 29.8707 46.4055C30.5262 45.2401 31.1818 44.3661 31.7645 44.0747C32.1286 43.8562 32.42 43.7105 32.7113 43.7105ZM28.4868 57.6223C30.4534 57.331 32.2743 48.8819 32.0558 46.4783C31.546 47.6437 30.0164 51.504 28.7053 54.8545C28.3412 55.8742 28.0498 56.6026 27.6856 57.331C27.8313 57.4766 28.1226 57.6223 28.414 57.6223C28.414 57.6223 28.414 57.6223 28.4868 57.6223Z" fill="#392112"/>
<path d="M53.9792 46.9142C54.2706 46.8414 54.4162 47.1328 54.2706 47.3513L53.6879 48.371C52.2311 51.1388 49.3177 56.6744 47.2054 57.0385C45.3117 57.3299 44.4376 55.8731 44.1463 54.1251C44.0735 53.8337 44.0735 53.6152 44.0735 53.3239C42.6896 55.6546 40.9415 57.9854 39.5576 58.2767C37.6638 58.5681 36.7898 57.1114 36.4985 55.2904C35.9886 52.0856 37.154 47.2056 37.7367 45.1662C38.028 44.2193 38.1009 43.7094 38.1009 42.7626C38.1009 42.6897 38.1737 42.544 38.2465 42.544C38.3194 42.4712 38.6835 42.3984 39.1206 42.3255C40.286 42.107 42.6167 42.1799 42.9081 44.1465C42.9809 44.5106 42.9081 45.1662 42.7624 45.8217C42.6167 46.1859 42.3982 46.9871 42.3254 47.3513C41.5242 49.8277 40.3588 54.0522 40.4316 55.2904L40.3588 55.3633C40.8686 55.2904 43.0537 51.6486 44.2191 49.682C44.5105 47.5698 44.9475 45.676 45.3117 44.2921C45.603 43.0539 45.8944 42.1799 45.8944 41.233C45.8944 41.1602 45.9672 41.0145 46.04 41.0145C46.1129 40.9417 46.4771 40.8688 46.9141 40.796C48.1523 40.5775 50.4102 40.6503 50.7744 42.6169C50.8472 43.0539 50.7744 43.6366 50.6287 44.2921L50.1189 45.8945C49.3177 48.5166 47.9338 52.9597 48.0795 54.1979C48.9535 53.688 52.0126 48.0796 52.5225 47.2056C52.5225 47.1328 52.6682 47.0599 52.741 47.0599L53.9792 46.9142Z" fill="#392112"/>
<path d="M69.4933 44.3663C69.7846 44.2935 69.9303 44.5848 69.7846 44.8033C68.5464 47.3526 66.3613 49.6834 64.3947 51.3586C63.0108 57.2584 61.4084 63.0853 56.9654 63.7408C55.2173 64.0322 53.8334 62.9397 53.6149 61.3372C53.105 58.2053 57.111 54.5635 59.6603 52.5969L60.0245 50.4846C58.5678 52.9611 56.8197 55.4375 55.4358 55.656C53.5421 55.9473 52.5952 54.4906 52.3038 52.6697C51.794 49.5377 53.0322 44.6577 53.5421 42.6183C53.8334 41.6714 53.9062 41.1615 53.9062 40.2147C53.9062 40.1418 53.9791 39.9961 54.0519 39.9961C54.1247 39.9233 54.4889 39.8505 54.926 39.7776C56.0913 39.5591 58.4221 39.632 58.7135 41.5985C58.7863 41.9627 58.7135 42.6182 58.5678 43.2738C58.4221 43.638 58.2036 44.4392 58.1308 44.8033C57.3296 47.2798 56.1642 51.5043 56.237 52.7425L56.1642 52.8154C56.8197 52.7425 59.4418 48.081 60.3159 46.4786L60.68 45.8959L60.6072 46.0416C61.4812 40.1418 62.7923 39.1221 64.6132 38.8308C66.4341 38.5394 68.0365 39.9233 68.1094 40.5788C68.1094 40.6517 68.1094 40.7973 68.0365 40.8702C66.7255 42.2541 65.8514 45.0947 65.1231 48.3723C66.3613 47.2798 67.4538 46.0416 68.1822 44.6577C68.1822 44.5849 68.3279 44.512 68.4007 44.512L69.4933 44.3663ZM56.7469 61.7014H56.8197C57.8394 61.3372 58.5678 58.7151 59.2233 55.5832C57.4752 57.1127 55.5815 59.0793 55.8728 60.6817C55.9457 61.3373 56.3827 61.7743 56.7469 61.7014Z" fill="#392112"/>
<path d="M17.3537 20.4319C16.3835 23.3703 16.4505 26.4611 17.5425 29.1351C18.6498 31.8467 20.6747 33.8074 23.2443 34.6558C25.8138 35.5042 28.6081 35.1349 31.1123 33.6158C32.7173 32.6422 34.0789 31.2691 35.1022 29.6207C35.9028 30.9932 37.0518 32.1978 38.4826 33.1497C40.3494 34.3914 42.5758 35.1187 44.9211 35.2528C48.0105 35.4295 50.9787 34.5648 53.2789 32.8179C55.6115 31.0465 56.9812 28.5831 57.1357 25.8815C57.2638 23.6417 56.5494 21.4757 55.0698 19.6176C54.9501 19.4673 54.826 19.32 54.6971 19.1757C53.3042 17.6139 51.3931 16.4066 49.2558 15.7484C48.8954 15.6373 48.5132 15.8395 48.4022 16.2C48.2911 16.5604 48.4934 16.9425 48.8538 17.0536C53.0397 18.3428 55.8476 21.7966 55.7814 25.5189C52.8666 27.9161 48.5388 27.6028 46.0047 24.7613C44.7712 23.3782 43.1606 22.4574 41.3472 22.0986C39.9455 21.8213 38.4806 21.9096 37.126 22.3403C37.1139 21.643 37.044 20.9529 36.9168 20.2775C38.3495 18.4808 40.5805 17.1922 43.0884 16.7239C43.4591 16.6547 43.7035 16.298 43.6343 15.9273C43.6106 15.8004 43.5532 15.6883 43.4731 15.5985C43.3193 15.426 43.0815 15.3359 42.8377 15.3814C40.3631 15.8434 38.119 17.0248 36.5009 18.6872C36.4262 18.4667 36.3456 18.2483 36.2577 18.033C35.7974 16.9058 35.1785 15.9083 34.4278 15.0666C33.3727 13.8835 32.0572 13.008 30.5559 12.5123C27.9863 11.6638 25.192 12.0332 22.6878 13.5523C20.2182 15.0503 18.3239 17.4936 17.3537 20.4319V20.4319ZM44.9853 25.6704C47.6941 28.7077 52.121 29.3238 55.5138 27.3618C54.406 31.3484 50.0317 34.177 44.999 33.8893C40.8888 33.6543 37.3475 31.4184 35.8844 28.1636C36.0962 27.7029 36.2844 27.2266 36.4464 26.7362C36.7651 25.771 36.9711 24.7893 37.0664 23.8115C39.8011 22.7166 43.007 23.452 44.9853 25.6704ZM34.9932 18.5493C35.9624 20.9226 36.0179 23.678 35.1495 26.308C33.4053 31.5903 28.4254 34.7331 23.9455 33.4426C22.3836 30.0065 23.8063 25.9065 27.2072 24.194C29.2218 23.1795 30.7208 21.4413 31.428 19.2994C31.9527 17.7105 31.9946 16.0407 31.5673 14.462C33.07 15.3457 34.2604 16.7547 34.9932 18.5493ZM29.8546 13.7256C30.5941 15.3503 30.694 17.1663 30.1311 18.871C29.5383 20.6666 28.2817 22.1237 26.5929 22.9741C22.958 24.8044 21.217 28.921 22.2341 32.706C18.6702 30.6042 17.07 25.6467 18.6505 20.8601C20.3948 15.5778 25.3747 12.435 29.8546 13.7256Z" fill="#392112"/>
<path d="M45.5201 16.3146C45.6396 16.4486 45.8114 16.5315 45.9908 16.5417C46.1706 16.5525 46.3502 16.4892 46.4843 16.3697C46.6183 16.2502 46.7016 16.0789 46.7114 15.899C46.7217 15.7197 46.6594 15.5401 46.5394 15.4055C46.4199 15.2715 46.2481 15.1887 46.0687 15.1784C45.8894 15.1681 45.7093 15.2309 45.5752 15.3504C45.4412 15.4699 45.3583 15.6417 45.3481 15.8211C45.3378 16.0004 45.4006 16.1805 45.5201 16.3146Z" fill="#392112"/>
</svg>
