<svg width="70" height="33" viewBox="0 0 70 33" fill="none" xmlns="http://www.w3.org/2000/svg">
<path d="M4.96044 23.4394C5.32462 23.5122 5.6888 23.5122 5.98015 23.4394C9.25779 22.9295 13.3366 18.6322 15.5946 14.8447C15.5946 14.7718 15.7402 14.699 15.8131 14.699L16.9056 14.4805C17.197 14.4077 17.3426 14.699 17.197 14.9175C14.5749 20.0889 9.4763 25.4788 5.32462 26.1343C2.26549 26.6442 0.663082 24.7504 0.153226 21.837C-1.01216 14.8447 4.59625 1.51558 12.6811 0.204527C15.0119 -0.159655 16.1773 1.07857 16.4686 2.75381C16.9056 5.52159 14.939 9.5276 12.0984 10.0375C10.7874 10.256 9.84048 9.60043 9.4763 8.1437C9.40347 7.85236 9.62197 7.63385 9.91332 7.77952C10.2775 7.92519 10.6417 7.9252 10.933 7.9252C13.191 7.56102 14.1378 3.48218 14.065 2.82665C13.9922 2.38963 13.7008 2.1711 13.4823 2.24394C11.2244 2.60812 3.35803 18.1952 4.0864 22.5653C4.30491 23.0752 4.52342 23.3665 4.96044 23.4394Z" fill="white"/>
<path d="M23.6065 13.534C23.6065 13.4612 23.7522 13.3883 23.825 13.3883L24.9176 13.1698C25.2089 13.097 25.3546 13.3883 25.2089 13.6068L24.6262 14.6265C23.2424 17.3943 20.2561 22.9299 18.1438 23.2941C16.3957 23.5855 15.5945 22.1287 15.3032 20.3078C14.7205 16.9573 15.9587 11.4946 16.7599 9.67367C17.5611 7.99843 18.6537 7.34291 19.6734 7.1244C21.4943 6.83305 23.0967 8.21694 23.1695 8.87247C23.1695 8.9453 23.1695 9.09097 23.0967 9.16381C21.9313 10.402 18.508 18.1227 18.8722 20.235C18.8722 20.3806 18.945 20.4535 19.0178 20.5263C19.8919 20.235 23.0967 14.408 23.6065 13.534ZM20.6202 0.714791C20.6202 0.350608 21.0573 0.132081 21.6399 0.0592444C23.0238 -0.159265 25.8645 0.204917 26.083 1.51597C26.1558 1.73448 26.083 2.02584 25.8645 2.39002C24.7719 4.21093 22.5868 6.46887 20.6202 6.83305C20.0375 6.90589 19.6005 6.90588 19.0907 6.68737C18.945 6.61454 18.8722 6.39602 18.945 6.25035C19.3092 5.59482 20.6931 2.31719 20.6202 0.714791Z" fill="white"/>
<path d="M32.7111 5.23201C34.3863 4.94066 35.3332 6.32455 35.6974 8.43681C36.4258 12.7342 34.3135 20.3092 29.8705 21.0375C29.1421 21.1832 28.1224 21.2561 27.1027 20.3092C27.0298 20.4548 27.0298 20.5277 26.957 20.6734C25.8645 25.2621 24.9176 29.5594 24.9904 30.1421C24.9904 30.2878 24.8448 30.4335 24.6991 30.5063C23.825 30.5791 21.7856 30.652 21.4214 28.6854C20.9844 26.2089 23.4609 13.244 24.6991 8.65533C24.9176 7.78129 25.0633 7.19859 25.0633 6.25171C25.0633 6.17888 25.1361 6.03321 25.2089 6.03321C25.2818 5.96038 25.646 5.88755 26.083 5.81471C27.2484 5.5962 29.5791 5.66904 29.8705 7.63563C29.8705 7.70846 29.8705 7.85413 29.8705 7.92697C30.526 6.76158 31.1815 5.88754 31.7642 5.59619C32.1284 5.37768 32.4198 5.23201 32.7111 5.23201ZM28.4866 19.1438C30.4532 18.8524 32.2741 10.4034 32.0556 7.99981C31.5457 9.16519 30.0161 13.0255 28.7051 16.376C28.3409 17.3957 28.0496 18.1241 27.6854 18.8524C27.8311 18.9981 28.1224 19.1438 28.4137 19.1438C28.4137 19.1438 28.4137 19.1438 28.4866 19.1438Z" fill="white"/>
<path d="M53.9795 8.43572C54.2708 8.36289 54.4165 8.65424 54.2708 8.87275L53.6881 9.89245C52.2314 12.6602 49.3179 18.1958 47.2057 18.56C45.3119 18.8514 44.4379 17.3946 44.1465 15.6466C44.0737 15.3552 44.0737 15.1367 44.0737 14.8454C42.6898 17.1761 40.9417 19.5069 39.5578 19.7982C37.6641 20.0896 36.79 18.6328 36.4987 16.8119C35.9888 13.6071 37.1542 8.72707 37.7369 6.68765C38.0283 5.74078 38.1011 5.23093 38.1011 4.28406C38.1011 4.21122 38.1739 4.06553 38.2468 4.06553C38.3196 3.9927 38.6838 3.91987 39.1208 3.84703C40.2862 3.62852 42.617 3.70136 42.9083 5.66794C42.9811 6.03213 42.9083 6.68765 42.7626 7.34318C42.617 7.70736 42.3985 8.50856 42.3256 8.87275C41.5244 11.3492 40.359 15.5737 40.4319 16.8119L40.359 16.8848C40.8689 16.8119 43.054 13.1701 44.2194 11.2035C44.5107 9.09127 44.9477 7.19752 45.3119 5.81363C45.6033 4.57541 45.8946 3.70136 45.8946 2.75448C45.8946 2.68165 45.9674 2.53598 46.0403 2.53598C46.1131 2.46315 46.4773 2.3903 46.9143 2.31746C48.1525 2.09895 50.4105 2.17179 50.7747 4.13837C50.8475 4.57539 50.7747 5.1581 50.629 5.81363L50.1191 7.41602C49.3179 10.0381 47.934 14.4812 48.0797 15.7194C48.9537 15.2095 52.0129 9.60113 52.5227 8.72709C52.5227 8.65425 52.6684 8.58141 52.7412 8.58141L53.9795 8.43572Z" fill="white"/>
<path d="M69.4935 5.88781C69.7848 5.81497 69.9305 6.10632 69.7848 6.32483C68.5466 8.87411 66.3615 11.2049 64.3949 12.8801C63.0111 18.7799 61.4086 24.6068 56.9656 25.2623C55.2175 25.5537 53.8336 24.4611 53.6151 22.8587C53.1053 19.7268 57.1113 16.0849 59.6606 14.1184L60.0248 12.0061C58.568 14.4825 56.8199 16.959 55.4361 17.1775C53.5423 17.4688 52.5954 16.0121 52.3041 14.1912C51.7942 11.0592 53.0324 6.17916 53.5423 4.13974C53.8336 3.19286 53.9065 2.68302 53.9065 1.73614C53.9065 1.6633 53.9793 1.51762 54.0522 1.51762C54.125 1.44478 54.4892 1.37195 54.9262 1.29912C56.0916 1.08061 58.4223 1.15344 58.7137 3.12003C58.7865 3.48421 58.7137 4.13973 58.568 4.79526C58.4224 5.15944 58.2038 5.96065 58.131 6.32483C57.3298 8.80128 56.1644 13.0258 56.2373 14.264L56.1644 14.3369C56.8199 14.264 59.4421 9.60249 60.3161 8.00009L60.6803 7.41738L60.6074 7.56306C61.4815 1.6633 62.7925 0.643598 64.6135 0.352252C66.4344 0.0609056 68.0368 1.4448 68.1096 2.10032C68.1096 2.17316 68.1096 2.31883 68.0368 2.39167C66.7257 3.77556 65.8517 6.61618 65.1233 9.89382C66.3615 8.80127 67.4541 7.56307 68.1824 6.17917C68.1824 6.10634 68.3281 6.03349 68.401 6.03349L69.4935 5.88781ZM56.7471 23.2229H56.8199C57.8397 22.8587 58.568 20.2366 59.2235 17.1047C57.4755 18.6342 55.5817 20.6008 55.8731 22.2032C55.9459 22.8587 56.3829 23.2958 56.7471 23.2229Z" fill="white"/>
<path d="M30.7734 31.5215H30.208L28.0605 28.2344V31.5215H27.4951V27.2559H28.0605L30.2139 30.5576V27.2559H30.7734V31.5215ZM35.0537 29.5264C35.0537 29.9443 34.9834 30.3096 34.8428 30.6221C34.7021 30.9326 34.5029 31.1699 34.2451 31.334C33.9873 31.498 33.6865 31.5801 33.3428 31.5801C33.0068 31.5801 32.709 31.498 32.4492 31.334C32.1895 31.168 31.9873 30.9326 31.8428 30.6279C31.7002 30.3213 31.627 29.9668 31.623 29.5645V29.2568C31.623 28.8467 31.6943 28.4844 31.8369 28.1699C31.9795 27.8555 32.1807 27.6152 32.4404 27.4492C32.7021 27.2812 33.001 27.1973 33.3369 27.1973C33.6787 27.1973 33.9795 27.2803 34.2393 27.4463C34.501 27.6104 34.7021 27.8496 34.8428 28.1641C34.9834 28.4766 35.0537 28.8408 35.0537 29.2568V29.5264ZM34.4941 29.251C34.4941 28.7451 34.3926 28.3574 34.1895 28.0879C33.9863 27.8164 33.7021 27.6807 33.3369 27.6807C32.9814 27.6807 32.7012 27.8164 32.4961 28.0879C32.293 28.3574 32.1885 28.7324 32.1826 29.2129V29.5264C32.1826 30.0166 32.2852 30.4023 32.4902 30.6836C32.6973 30.9629 32.9814 31.1025 33.3428 31.1025C33.7061 31.1025 33.9873 30.9707 34.1865 30.707C34.3857 30.4414 34.4883 30.0615 34.4941 29.5674V29.251ZM39.1758 31.5215H38.6104L36.4629 28.2344V31.5215H35.8975V27.2559H36.4629L38.6162 30.5576V27.2559H39.1758V31.5215Z" fill="white"/>
<path d="M45.6758 30.8401C45.5421 31.0406 45.3416 31.2411 45.0743 31.3747C44.8069 31.5084 44.5396 31.5752 44.1386 31.5752C43.8045 31.5752 43.5371 31.5084 43.2698 31.4416C43.0025 31.3079 42.802 31.1742 42.6015 31.0406C42.401 30.8401 42.2673 30.6396 42.1337 30.3722C42 30.1049 42 29.8376 42 29.5034C42 29.1693 42.0668 28.902 42.1337 28.6346C42.2673 28.3673 42.401 28.1668 42.6015 27.9663C42.802 27.7658 43.0025 27.6321 43.2698 27.5653C43.5371 27.4316 43.8045 27.4316 44.1386 27.4316C44.2723 27.4316 44.406 27.4316 44.5396 27.4985C44.6733 27.4985 44.8069 27.5653 44.9406 27.6321C45.0743 27.699 45.2079 27.7658 45.2748 27.8326C45.4084 27.8995 45.4753 27.9663 45.5421 28.1L45.0743 28.4341C45.0074 28.3005 44.8069 28.1668 44.6733 28.1C44.4728 28.0331 44.2723 27.9663 44.0718 27.9663C43.8713 27.9663 43.604 28.0331 43.4703 28.1C43.2698 28.1668 43.1361 28.3005 43.0025 28.4341C42.8688 28.5678 42.802 28.7683 42.6683 28.9688C42.6015 29.1693 42.5347 29.3698 42.5347 29.5703C42.5347 29.7708 42.6015 30.0381 42.6683 30.1718C42.7352 30.3723 42.8688 30.5059 42.9356 30.7064C43.0693 30.8401 43.203 30.9737 43.4035 31.0406C43.604 31.1074 43.8045 31.1742 44.005 31.1742C44.2055 31.1742 44.406 31.1074 44.6064 31.0406C44.8069 30.9737 44.9406 30.8401 45.0743 30.6396L45.6758 30.8401Z" fill="white"/>
<path d="M51.2895 29.437C51.2895 29.7712 51.2226 30.0385 51.1558 30.3059C51.0221 30.5732 50.8885 30.7737 50.688 30.9742C50.4875 31.1747 50.287 31.3083 50.0196 31.3752C49.7523 31.5088 49.485 31.5088 49.1508 31.5088C48.8167 31.5088 48.5493 31.442 48.282 31.3752C48.0147 31.2415 47.8142 31.1078 47.6137 30.9742C47.4132 30.7737 47.2795 30.5732 47.1459 30.3059C47.0122 30.0385 47.0122 29.7712 47.0122 29.437C47.0122 29.1029 47.079 28.8355 47.1459 28.5682C47.2795 28.3009 47.4132 28.1004 47.6137 27.8999C47.8142 27.6994 48.0147 27.5657 48.282 27.4989C48.5493 27.3652 48.8167 27.3652 49.1508 27.3652C49.485 27.3652 49.7523 27.4321 50.0196 27.4989C50.287 27.6326 50.4875 27.7662 50.688 27.8999C50.8885 28.1004 51.0221 28.3009 51.1558 28.5682C51.2895 28.9024 51.2895 29.1697 51.2895 29.437ZM50.688 29.437C50.688 29.2365 50.6211 29.036 50.5543 28.8355C50.4875 28.635 50.3538 28.5014 50.2201 28.3009C50.0865 28.1672 49.9528 28.0336 49.7523 27.9667C49.5518 27.8999 49.3513 27.8331 49.1508 27.8331C48.9503 27.8331 48.683 27.8999 48.5493 27.9667C48.3488 28.0336 48.2152 28.1672 48.0815 28.3009C47.9479 28.4346 47.881 28.635 47.8142 28.8355C47.7474 29.036 47.6805 29.2365 47.6805 29.437C47.6805 29.6375 47.7474 29.838 47.8142 30.0385C47.881 30.239 48.0147 30.3727 48.1483 30.5732C48.282 30.7068 48.4157 30.8405 48.6162 30.9073C48.8167 30.9742 49.0172 31.041 49.2177 31.041C49.4182 31.041 49.6855 30.9742 49.8191 30.9073C50.0196 30.8405 50.1533 30.7068 50.287 30.5732C50.4206 30.4395 50.4875 30.239 50.6211 30.0385C50.688 29.9048 50.688 29.7044 50.688 29.437Z" fill="white"/>
<path d="M53.7622 31.4416H53.2275V27.4316H55.7003V27.8995H53.7622V29.1693H55.5667V29.6371H53.7622V31.4416Z" fill="white"/>
<path d="M58.1064 31.4416H57.5718V27.4316H60.0446V27.8995H58.1064V29.1693H59.9109V29.6371H58.1064V31.4416Z" fill="white"/>
<path d="M62.3838 30.9737H64.4556V31.4416H61.8491V27.4316H64.3887V27.8995H62.3838V29.1024H64.2551V29.5703H62.3838V30.9737Z" fill="white"/>
<path d="M66.9282 30.9737H69V31.4416H66.3936V27.4316H68.9332V27.8995H66.9282V29.1024H68.7995V29.5703H66.9282V30.9737Z" fill="white"/>
</svg>
