<svg width="158" height="162" viewBox="0 0 158 162" fill="none" xmlns="http://www.w3.org/2000/svg">
<path d="M88.286 159.563C87.9566 160.057 87.4626 160.551 86.8038 160.88C86.1451 161.21 85.4864 161.374 84.4983 161.374C83.6749 161.374 83.0162 161.21 82.3575 161.045C81.6987 160.716 81.2047 160.386 80.7106 160.057C80.2166 159.563 79.8872 159.069 79.5579 158.41C79.2285 157.751 79.2285 157.093 79.2285 156.269C79.2285 155.446 79.3932 154.787 79.5579 154.128C79.8872 153.47 80.2166 152.976 80.7106 152.482C81.2047 151.987 81.6987 151.658 82.3575 151.493C83.0162 151.164 83.6749 151.164 84.4983 151.164C84.8277 151.164 85.157 151.164 85.4864 151.329C85.8158 151.329 86.1451 151.493 86.4745 151.658C86.8039 151.823 87.1332 151.987 87.2979 152.152C87.6273 152.317 87.7919 152.482 87.9566 152.811L86.8038 153.634C86.6392 153.305 86.1451 152.976 85.8158 152.811C85.3217 152.646 84.8277 152.482 84.3336 152.482C83.8396 152.482 83.1809 152.646 82.8515 152.811C82.3575 152.976 82.0281 153.305 81.6987 153.634C81.3694 153.964 81.2047 154.458 80.8753 154.952C80.7106 155.446 80.546 155.94 80.546 156.434C80.546 156.928 80.7106 157.587 80.8753 157.916C81.04 158.41 81.3694 158.739 81.5341 159.233C81.8634 159.563 82.1928 159.892 82.6868 160.057C83.1809 160.222 83.6749 160.386 84.169 160.386C84.663 160.386 85.157 160.222 85.6511 160.057C86.1451 159.892 86.4745 159.563 86.8038 159.069L88.286 159.563Z" fill="#C68A65"/>
<path d="M102.119 156.105C102.119 156.929 101.954 157.587 101.79 158.246C101.46 158.905 101.131 159.399 100.637 159.893C100.143 160.387 99.649 160.716 98.9902 160.881C98.3315 161.21 97.6728 161.21 96.8494 161.21C96.026 161.21 95.3673 161.046 94.7085 160.881C94.0498 160.552 93.5558 160.222 93.0617 159.893C92.5677 159.399 92.2383 158.905 91.9089 158.246C91.5796 157.587 91.5796 156.929 91.5796 156.105C91.5796 155.282 91.7443 154.623 91.9089 153.964C92.2383 153.306 92.5677 152.812 93.0617 152.317C93.5558 151.823 94.0498 151.494 94.7085 151.329C95.3673 151 96.026 151 96.8494 151C97.6728 151 98.3315 151.165 98.9902 151.329C99.649 151.659 100.143 151.988 100.637 152.317C101.131 152.812 101.46 153.306 101.79 153.964C102.119 154.788 102.119 155.446 102.119 156.105ZM100.637 156.105C100.637 155.611 100.472 155.117 100.308 154.623C100.143 154.129 99.8137 153.8 99.4843 153.306C99.1549 152.976 98.8256 152.647 98.3315 152.482C97.8375 152.317 97.3434 152.153 96.8494 152.153C96.3553 152.153 95.6966 152.317 95.3673 152.482C94.8732 152.647 94.5438 152.976 94.2145 153.306C93.8851 153.635 93.7204 154.129 93.5558 154.623C93.3911 155.117 93.2264 155.611 93.2264 156.105C93.2264 156.599 93.3911 157.093 93.5558 157.587C93.7204 158.081 94.0498 158.411 94.3792 158.905C94.7085 159.234 95.0379 159.563 95.5319 159.728C96.026 159.893 96.52 160.057 97.0141 160.057C97.5081 160.057 98.1668 159.893 98.4962 159.728C98.9902 159.563 99.3196 159.234 99.649 158.905C99.9783 158.575 100.143 158.081 100.472 157.587C100.637 157.258 100.637 156.764 100.637 156.105Z" fill="#C68A65"/>
<path d="M108.212 161.045H106.895V151.164H112.988V152.317H108.212V155.446H112.658V156.599H108.212V161.045Z" fill="#C68A65"/>
<path d="M118.917 161.045H117.599V151.164H123.692V152.317H118.917V155.446H123.363V156.599H118.917V161.045Z" fill="#C68A65"/>
<path d="M129.457 159.892H134.562V161.045H128.139V151.164H134.397V152.317H129.457V155.281H134.068V156.434H129.457V159.892V159.892Z" fill="#C68A65"/>
<path d="M140.654 159.892H145.759V161.045H139.337V151.164H145.595V152.317H140.654V155.281H145.265V156.434H140.654V159.892V159.892Z" fill="#C68A65"/>
<path d="M11.2154 139.996C12.0388 140.161 12.8622 140.161 13.5209 139.996C20.9316 138.843 30.1537 129.127 35.2588 120.564C35.2588 120.399 35.5882 120.234 35.7529 120.234L38.2231 119.74C38.8818 119.576 39.2112 120.234 38.8818 120.728C32.9533 132.421 21.4256 144.607 12.0388 146.089C5.1222 147.242 1.49921 142.96 0.34644 136.373C-2.28846 120.564 10.392 90.4271 28.6716 87.4628C33.9414 86.6394 36.5763 89.439 37.235 93.2267C38.2231 99.4846 33.7767 108.542 27.3542 109.695C24.3899 110.189 22.249 108.707 21.4256 105.413C21.261 104.754 21.755 104.26 22.4137 104.59C23.2371 104.919 24.0605 104.919 24.7193 104.919C29.8244 104.096 31.9652 94.8735 31.8005 93.3914C31.6359 92.4033 30.9771 91.9092 30.4831 92.0739C25.378 92.8973 7.59241 128.139 9.23922 138.02C9.73327 139.173 10.2273 139.831 11.2154 139.996Z" fill="#C68A65"/>
<path d="M53.3735 117.6C53.3735 117.435 53.7028 117.271 53.8675 117.271L56.3377 116.777C56.9964 116.612 57.3258 117.271 56.9964 117.765L55.679 120.07C52.5501 126.328 45.7981 138.844 41.0224 139.667C37.07 140.326 35.2585 137.032 34.5998 132.915C33.2824 125.34 36.0819 112.989 37.8934 108.872C39.7049 105.084 42.1751 103.602 44.4807 103.108C48.5977 102.449 52.2207 105.578 52.3854 107.06C52.3854 107.225 52.3854 107.554 52.2207 107.719C49.5858 110.519 41.8458 127.975 42.6692 132.751C42.6692 133.08 42.8339 133.245 42.9985 133.409C44.9747 132.751 52.2207 119.576 53.3735 117.6ZM46.6215 88.6161C46.6215 87.7927 47.6096 87.2986 48.9271 87.1339C52.056 86.6399 58.4786 87.4633 58.9726 90.4276C59.1373 90.9216 58.9726 91.5804 58.4786 92.4038C56.0084 96.5208 51.0679 101.626 46.6215 102.449C45.3041 102.614 44.316 102.614 43.1632 102.12C42.8339 101.955 42.6692 101.461 42.8339 101.132C43.6573 99.6497 46.7862 92.2391 46.6215 88.6161Z" fill="#C68A65"/>
<path d="M73.9589 98.8276C77.7466 98.1689 79.8875 101.298 80.7109 106.074C82.3577 115.79 77.5819 132.917 67.5364 134.563C65.8896 134.893 63.584 135.057 61.2785 132.917C61.1138 133.246 61.1138 133.411 60.9491 133.74C58.4789 144.115 56.338 153.831 56.5027 155.149C56.5027 155.478 56.1734 155.807 55.844 155.972C53.8678 156.137 49.2568 156.301 48.4333 151.855C47.4453 146.256 53.0444 116.943 55.844 106.568C56.338 104.591 56.6674 103.274 56.6674 101.133C56.6674 100.968 56.8321 100.639 56.9968 100.639C57.1615 100.474 57.9849 100.31 58.9729 100.145C61.6078 99.6511 66.8776 99.8157 67.5364 104.262C67.5364 104.427 67.5364 104.756 67.5364 104.921C69.0185 102.286 70.5006 100.31 71.8181 99.651C72.6415 99.157 73.3002 98.8276 73.9589 98.8276ZM64.4074 130.282C68.8538 129.623 72.9708 110.52 72.4768 105.086C71.324 107.72 67.8657 116.449 64.9015 124.024C64.0781 126.329 63.4193 127.976 62.5959 129.623C62.9253 129.952 63.584 130.282 64.2427 130.282C64.2427 130.282 64.2427 130.282 64.4074 130.282Z" fill="#C68A65"/>
<path d="M122.046 106.072C122.705 105.908 123.034 106.566 122.705 107.06L121.387 109.366C118.094 115.624 111.506 128.14 106.731 128.963C102.449 129.622 100.473 126.328 99.814 122.376C99.6493 121.717 99.6493 121.223 99.6493 120.564C96.5203 125.834 92.568 131.104 89.439 131.763C85.1573 132.421 83.1812 129.128 82.5224 125.011C81.3697 117.765 84.0046 106.731 85.322 102.12C85.9807 99.9792 86.1454 98.8264 86.1454 96.6856C86.1454 96.5209 86.3101 96.1915 86.4748 96.1915C86.6395 96.0268 87.4629 95.8621 88.451 95.6975C91.0859 95.2034 96.3557 95.3681 97.0144 99.8145C97.1791 100.638 97.0144 102.12 96.685 103.602C96.3557 104.426 95.8616 106.237 95.6969 107.06C93.8854 112.66 91.2505 122.211 91.4152 125.011L91.2505 125.175C92.4033 125.011 97.3437 116.777 99.9786 112.33C100.637 107.555 101.625 103.273 102.449 100.144C103.108 97.3443 103.766 95.3681 103.766 93.2272C103.766 93.0626 103.931 92.7332 104.096 92.7332C104.26 92.5685 105.084 92.4038 106.072 92.2391C108.871 91.7451 113.977 91.9098 114.8 96.3562C114.965 97.3443 114.8 98.6617 114.471 100.144L113.318 103.767C111.506 109.695 108.377 119.741 108.707 122.54C110.683 121.388 117.6 108.707 118.752 106.731C118.752 106.566 119.082 106.402 119.246 106.402L122.046 106.072Z" fill="#C68A65"/>
<path d="M157.123 100.311C157.781 100.146 158.111 100.805 157.781 101.299C154.982 107.063 150.041 112.332 145.595 116.12C142.466 129.459 138.843 142.634 128.797 144.116C124.845 144.775 121.716 142.304 121.222 138.681C120.069 131.6 129.127 123.366 134.891 118.92L135.714 114.144C132.42 119.743 128.468 125.342 125.339 125.836C121.057 126.495 118.917 123.201 118.258 119.084C117.105 112.003 119.905 100.969 121.057 96.3583C121.716 94.2175 121.881 93.0647 121.881 90.9239C121.881 90.7592 122.045 90.4298 122.21 90.4298C122.375 90.2651 123.198 90.1005 124.186 89.9358C126.821 89.4417 132.091 89.6064 132.75 94.0528C132.914 94.8762 132.75 96.3583 132.42 97.8405C132.091 98.6639 131.597 100.475 131.432 101.299C129.621 106.898 126.986 116.449 127.151 119.249L126.986 119.414C128.468 119.249 134.397 108.709 136.373 105.086L137.196 103.769L137.031 104.098C139.008 90.7592 141.972 88.4537 146.089 87.795C150.206 87.1362 153.829 90.2652 153.994 91.7473C153.994 91.912 153.994 92.2413 153.829 92.406C150.865 95.535 148.889 101.957 147.242 109.368C150.041 106.898 152.512 104.098 154.158 100.969C154.158 100.805 154.488 100.64 154.652 100.64L157.123 100.311ZM128.303 139.505H128.468C130.774 138.681 132.42 132.753 133.903 125.672C129.95 129.13 125.668 133.576 126.327 137.199C126.492 138.681 127.48 139.67 128.303 139.505Z" fill="#C68A65"/>
<path d="M39.2369 46.1968C37.0433 52.8404 37.1949 59.8287 39.6637 65.8746C42.1674 72.0054 46.7457 76.4384 52.5554 78.3566C58.365 80.2749 64.6828 79.4398 70.3448 76.0052C73.9736 73.804 77.0521 70.6994 79.3658 66.9723C81.1758 70.0755 83.7737 72.7992 87.0087 74.9513C91.2294 77.7589 96.2633 79.4033 101.566 79.7065C108.551 80.1059 115.262 78.1508 120.463 74.2012C125.737 70.1962 128.834 64.6265 129.183 58.5182C129.472 53.454 127.857 48.5568 124.512 44.3557C124.241 44.0158 123.961 43.6829 123.669 43.3565C120.52 39.8255 116.199 37.0958 111.367 35.6075C110.552 35.3564 109.688 35.8136 109.437 36.6286C109.186 37.4435 109.643 38.3074 110.458 38.5586C119.922 41.4734 126.271 49.2825 126.121 57.6984C119.531 63.1185 109.745 62.41 104.016 55.9855C101.227 52.8583 97.5857 50.7764 93.4856 49.9652C90.3164 49.3381 87.0043 49.5378 83.9415 50.5117C83.9142 48.935 83.756 47.3749 83.4686 45.8477C86.7078 41.7856 91.752 38.8719 97.4222 37.8132C98.2604 37.6567 98.8131 36.8502 98.6566 36.012C98.603 35.7251 98.4733 35.4717 98.2922 35.2687C97.9444 34.8787 97.4067 34.6748 96.8555 34.7777C91.2605 35.8223 86.1867 38.4934 82.5281 42.2521C82.3593 41.7536 82.1772 41.2599 81.9783 40.7729C80.9376 38.2243 79.5383 35.9692 77.8411 34.066C75.4555 31.3911 72.4812 29.4117 69.0867 28.2909C63.277 26.3725 56.9592 27.2077 51.2972 30.6423C45.7135 34.0292 41.4305 39.5533 39.2369 46.1968V46.1968ZM101.711 58.0409C107.836 64.9082 117.845 66.3012 125.516 61.8651C123.011 70.8786 113.121 77.2742 101.742 76.6235C92.449 76.0922 84.4423 71.0369 81.1343 63.678C81.6132 62.6363 82.0387 61.5594 82.4049 60.4506C83.1256 58.2684 83.5913 56.0489 83.8068 53.8379C89.9899 51.3625 97.2382 53.0253 101.711 58.0409ZM79.1194 41.9404C81.3107 47.3063 81.4361 53.5363 79.4728 59.4825C75.5291 71.4256 64.2698 78.5313 54.1408 75.6137C50.6093 67.8446 53.826 58.5747 61.5153 54.7029C66.0704 52.4092 69.4596 48.479 71.0586 43.6362C72.2448 40.0439 72.3395 36.2685 71.3736 32.6991C74.7711 34.6971 77.4624 37.8828 79.1194 41.9404ZM67.5012 31.034C69.173 34.7075 69.399 38.8133 68.1263 42.6678C66.7859 46.7274 63.9448 50.022 60.1265 51.9446C51.908 56.0829 47.9718 65.3905 50.2714 73.9481C42.2135 69.196 38.5955 57.9874 42.169 47.1649C46.1127 35.2219 57.3722 28.116 67.5012 31.034Z" fill="#C68A65"/>
<path d="M102.921 36.8868C103.191 37.1898 103.579 37.3772 103.985 37.4003C104.391 37.4247 104.797 37.2817 105.101 37.0114C105.404 36.7412 105.592 36.3539 105.614 35.9473C105.637 35.5418 105.496 35.1357 105.225 34.8315C104.955 34.5284 104.566 34.3411 104.161 34.3179C103.756 34.2947 103.348 34.4366 103.045 34.7068C102.742 34.9771 102.555 35.3655 102.532 35.771C102.508 36.1765 102.65 36.5837 102.921 36.8868Z" fill="#C68A65"/>
</svg>
